<svg xmlns="http://www.w3.org/2000/svg" viewBox="0 0 129 193">
  <style type="text/css">
    .cls-0 {fill:#FFFAF0;}
    .cls-2 {fill:#A5A9AD;}
    .cls-3 {fill:#BEC2C7;}
    .cls-4 {fill:none;stroke:#050505;stroke-width:2.6;stroke-linejoin:round;stroke-miterlimit:10;}
  </style>
  <!-- 벽 + 문틀 -->
  <path class="cls-0" d="m129.3 34.2v-34.2h-128.4v185l4.4 1h8.7l0.6-173.2 1.7-0.3h98.3l0.6 0.5 0.3 2.2 0.4 171 6.9 1.3 6.5-0.2v-151c-0.6-0.6-0.6-4 0-4.9v2.8z"/>
  <!-- 바닥 띠 -->
  <path class="cls-2" d="m113 187.5-95-0.5-4 6h115.3v-5l-16.3-0.5z"/>
  <path class="cls-2" d="m0.9 186.5 4.4 0.5h9.1l-3 6h-10.5z"/>
  <!-- 바닥 디테일 -->
  <path class="cls-3" d="m12.1 187.5-0.9 2.5-0.7 3h-9.6v-6.5z"/>
  <path class="cls-3" d="m61.5 188.5 0.2 4.5h2.8l-0.5-4.5z"/>
  <path class="cls-3" d="m111.4 187.5 1.6 5.5h3.9l-2.2-5.2-3.3-0.3z"/>
  <!-- 바닥 선 -->
  <path class="cls-4" d="m0.9 185.9 4.4 0.4h10l10.4-0.7 6.6-0.1 13.3 0.8 3.5 0.5 7.2 0.3 4.5 0.5h31.7l17.1-0.4h5l3.4 0.1 4.8 0.5 2.2 0.3h4.3"/>
</svg>
