<svg xmlns="http://www.w3.org/2000/svg" viewBox="0 10 129 178">
  <style type="text/css">
    .cls-1 {fill:#A18977;}
    .cls-4 {fill:none;stroke:#050505;stroke-width:2.6;stroke-linejoin:round;stroke-miterlimit:10;}
    .cls-5 {fill:none;stroke:#877667;stroke-width:2.1;stroke-linejoin:round;stroke-miterlimit:10;}
    .cls-6 {fill:#B3B3B3;stroke:#050505;stroke-width:2.6;stroke-linejoin:round;stroke-miterlimit:10;}
    .cls-7 {fill:#CBCBCB;stroke:#050505;stroke-width:2.1;stroke-linejoin:round;stroke-miterlimit:10;}
    .cls-8 {fill:#B3B3B3;stroke:#050505;stroke-width:2.6;stroke-miterlimit:10;}
    .cls-9 {fill:#CBCBCB;stroke:#050505;stroke-width:2.1;stroke-miterlimit:10;}
  </style>
  <path class="cls-1" d="m14.4 12.5v173.7l13.4-1 20.7 1.3 10.5 1.3h33.5l23-0.8v-174l-10.1-0.8-13.5 0.6-13.2-0.3-24.7 0.3-5.1 0.4-14.7-0.2h-8.5l-5.5-0.5z"/>
  <path class="cls-4" d="m14.4 12.5h5.1l6.2 0.5 5-0.1 4.9 0.3 4.8-0.2 8.6 0.2 4.4-0.6 4.6-0.1 5.8-0.1 3.4 0.1h10.6l2.1-0.1 5.8 0.3 6.5 0.3h0.5l4.7-0.7 2.1-0.2h6.4 0.7 1.1l2.2 0.4 1.5-0.1 1-0.1 2.5 0.3 0.3 0.2h0.2l-0.2 0.5v5.8l0.4 2.4v9.4l-0.2 1.8 0.1 1.5-0.1 2.1 0.1 1.4-0.1 6.2-0.1 3.7 0.2 11.3-0.1 23.2v14.8l0.3 2.1-0.2 14.1-0.3 4.3v68.4"/>
  <path class="cls-4" d="m14.4 12.5 0.2 1.1v3.4l-0.2 2.3 0.3 1.4-0.2 3 0.1 6.3 0.4 155.6"/>
  <path class="cls-5" d="m25.6 24.2 4-0.1 3.8 0.4h4.3l3.7 0.2 4.6-0.2 7.1 0.3 3.3-0.5 6.3-0.2 7.6 0.2 6.8-0.2 8.7 0.5 5.4-0.5 4.1-0.2 7.2 0.2 0.5 0.1h0.6l0.5 0.1 0.3 0.1 0.4 0.1-0.6 0.1-0.2 0.1h0.5l-0.9-0.2 0.3 0.2 0.3-0.2 0.3-0.1-0.9 0.2 0.3 0.1 0.3-0.2h0.6l-1.2 0.2 1.2-0.1-0.3 0.1 0.3 0.1-0.3-0.1-0.3-0.2h0.3l0.3 0.1-0.3 0.1-0.3-0.2 0.3 0.2 0.3-0.1-0.3 0.1 0.3 0.1-0.3-0.1 0.2 0.1 0.1-0.2"/>
  <path class="cls-5" d="m25.6 24.1-0.4 0.4h0.4l-0.4 0.3 0.4-0.2-0.4 0.2 0.4-0.1-0.4 0.1 0.4 0.1-0.4 0.1 0.4-0.1-0.4 0.1 0.4-0.1-0.4 0.1 0.4 0.1-0.4 0.1 0.4-0.1-0.4 0.1 0.4 0.1-0.4 0.2 0.4-0.2-0.4 0.2 0.4-0.1-0.4 0.1 0.4 0.1-0.4 0.1 0.4-0.1-0.4 3.1 0.2 2.2-0.1 4.4-0.3 9.4v3.3l0.2 3.7-0.2 3.3 0.2 2.5-0.2 6.2-0.3 3.8v15.1l0.4 8.3-0.4 7.9v13.8l0.5 8.9 0.4 14.7-0.4 13.1-0.4 19.8 0.5 6.9 4.3-0.2 5.7 0.8 13.6-0.5 3.1 0.2 2.5-0.4 7.2-0.1 3.6 0.5 12.8-0.5 2.5 0.1 2.9-0.4 8 0.5 5.2 0.1 0.9-0.1-0.5-0.1h1.5l3.3 0.4h1.4l-0.3 0.1 0.9-0.1h-1.1l0.2 0.1 0.9-0.1-0.3 0.1 0.6-0.1-0.6 0.1 0.9-0.1-0.3 0.1 0.6-0.1-0.3 0.1 0.3-0.1-0.3 0.1 0.3-0.1-0.3 0.1 0.3-0.1-0.3 0.1 0.3-0.1-0.3 0.1 0.3-0.1-0.3 0.1 0.3-0.2-0.3 0.2 0.3-0.2-0.3 0.2 0.3-0.2-0.3 0.2 0.3-0.2-0.3-0.1 0.3 0.1-0.3-0.1 0.3-0.1-0.3 0.1 0.3-0.1-0.3 0.1 0.3-0.1-0.3-0.1 0.3 0.1-0.6-0.2 0.6 0.2-0.3-0.1 0.3-0.2-0.3 0.2 0.3-0.2-0.3-0.1 0.3 0.1-0.3-0.1 0.3-0.1-0.3 0.1 0.3-0.1 0.3-2.1v-8.9l0.2-2.8-0.3-20.3v-1.5l0.1-0.5v-12.3l-0.9-13 0.5-5.1-0.2-9.7-0.3-1.2v-30.5l0.2-2-0.2-8.7 0.3-11 0.2-7.3-0.2-11.5"/>
  <path class="cls-6" d="m11 28.4-1.1 0.6-0.6 0.9 1.3-0.1-1.3 0.6v16.1l1 0.9 1.7 0.4 3.1-0.5 1.4-1.3v-15.8l-0.9-1.6-1.9-0.4z"/>
  <path class="cls-6" d="m11 145.6-0.5 1.2v15.7l2 1.5 3.1-0.5 0.9-1.1 0.2-14.8-0.5-2-0.9-0.9h-2.6z"/>
  <path class="cls-7" d="m52.4 40.3-0.6 0.1-0.4 0.7 0.2 0.5-0.1 4.4 0.6 0.7h14.6l7-0.3 0.6-0.5 0.3-2.4-0.3-3.1-0.7-0.4h-9.7z"/>
  <path class="cls-9" d="m61.4 60.3-0.7 2.3 0.7 1.6 1.9 0.5 1.2-0.4 0.8-1 0.1-1.5-0.6-1.3-1.5-0.5z"/>
  <path class="cls-8" d="m83.6 101.5v27.4l0.3 4.3h15.1l0.2-32.4-11.6-0.2z"/>
  <path class="cls-6" d="m88 124.5 1.1 2.5 2 1 2.4 0.1 2.3-1.5 11.4 0.5v-4.5l-11.2-0.4-3.3-0.8-2.6 0.7z"/>
  <path class="cls-9" d="m95.7 122.7-2-1.1-2.3 0.4-1.3 1.2-0.7 1.4 0.5 1.9 1.4 1.4 1.8 0.4 1.8-0.4 1.2-1.3 0.5-2z"/>
  <path class="cls-9" d="m95.9 122.6h11l0.3 4.4-11.6-0.2z"/>
</svg>
