<?xml version="1.0" standalone="no"?>
<!DOCTYPE svg PUBLIC "-//W3C//DTD SVG 20010904//EN"
 "http://www.w3.org/TR/2001/REC-SVG-20010904/DTD/svg10.dtd">
<svg version="1.0" xmlns="http://www.w3.org/2000/svg"
 width="1280.000000pt" height="1280.000000pt" viewBox="0 0 1280.000000 1280.000000"
 preserveAspectRatio="xMidYMid meet">
<metadata>
Created by potrace 1.15, written by Peter Selinger 2001-2017
</metadata>
<g transform="translate(0.000000,1280.000000) scale(0.100000,-0.100000)"
fill="#000000" stroke="none">
<path d="M8439 11434 c-1 -5 -1 -13 0 -18 3 -15 -22 -26 -35 -15 -8 7 -15 6
-20 -2 -4 -8 -3 -9 4 -5 7 4 12 3 12 -2 0 -5 -16 -17 -35 -26 -19 -9 -40 -26
-46 -37 -8 -16 -13 -18 -25 -8 -11 9 -14 8 -14 -5 0 -9 -7 -16 -15 -16 -8 0
-15 -4 -15 -9 0 -5 -8 -8 -17 -7 -10 0 -19 -8 -21 -19 -5 -22 -100 -114 -118
-115 -7 0 -15 -8 -18 -17 -6 -15 -8 -15 -16 -3 -8 12 -10 12 -16 -3 -3 -9 -12
-17 -19 -17 -8 0 -17 -10 -21 -22 -3 -12 -13 -28 -20 -35 -7 -8 -10 -21 -7
-30 5 -12 3 -14 -7 -8 -10 6 -12 4 -7 -8 4 -11 -4 -25 -28 -43 -19 -14 -37
-35 -41 -46 -3 -11 -8 -17 -11 -14 -3 3 -16 -8 -30 -25 -14 -16 -29 -27 -34
-23 -5 3 -9 0 -9 -5 0 -14 -67 -42 -84 -35 -8 3 -17 1 -21 -5 -4 -7 -13 -8
-23 -2 -9 4 -34 11 -54 15 -21 4 -38 10 -38 14 0 4 -42 8 -93 9 -118 3 -154 7
-163 16 -4 4 -13 2 -20 -4 -9 -7 -19 -7 -30 -1 -12 7 -22 6 -32 -4 -16 -17
-32 -18 -32 -3 0 5 -4 7 -10 4 -5 -3 -40 -8 -77 -11 -38 -2 -90 -7 -118 -10
-27 -4 -66 -8 -85 -9 -19 -2 -37 -4 -40 -5 -3 -1 -9 -2 -14 -1 -4 1 -14 -3
-22 -10 -7 -6 -19 -7 -26 -3 -6 4 -64 8 -129 8 -64 1 -123 6 -130 11 -20 14
-139 8 -180 -9 -9 -4 -23 -1 -30 7 -8 7 -29 14 -46 14 -18 0 -41 7 -51 16 -10
10 -21 14 -25 11 -4 -4 -18 1 -32 10 -18 12 -25 13 -25 4 0 -7 -7 -2 -16 10
-8 12 -21 22 -28 22 -8 0 -19 7 -26 15 -7 8 -16 13 -20 10 -4 -2 -16 5 -28 15
-12 11 -27 20 -35 20 -7 0 -18 5 -25 12 -6 6 -26 13 -44 15 -18 2 -34 8 -36
13 -2 6 -9 10 -16 10 -6 0 -32 18 -56 40 -25 22 -54 43 -65 46 -11 4 -29 15
-40 26 -20 19 -145 91 -220 127 -161 77 -218 94 -268 80 -41 -12 -49 -17 -73
-54 -23 -35 -23 -67 1 -205 10 -52 20 -112 22 -133 3 -20 9 -40 14 -43 5 -3 9
-13 9 -23 0 -10 8 -33 17 -52 10 -19 19 -42 20 -52 2 -10 12 -35 23 -57 11
-22 20 -46 20 -54 0 -8 39 -88 86 -178 99 -187 103 -198 110 -293 3 -38 9 -74
13 -80 5 -5 11 -48 14 -95 4 -75 10 -95 47 -170 24 -47 43 -89 42 -95 -2 -33
-14 -164 -17 -185 -1 -14 -6 -33 -10 -43 -4 -10 -2 -24 5 -32 9 -11 10 -18 1
-29 -7 -8 -9 -31 -6 -56 3 -23 0 -50 -5 -61 -7 -13 -7 -19 -1 -19 6 0 9 -21 8
-50 -2 -27 0 -50 4 -50 4 0 3 -14 -3 -30 -7 -22 -7 -34 1 -43 6 -8 9 -23 6
-35 -2 -13 3 -25 12 -31 12 -6 15 -19 11 -55 -4 -33 -2 -46 7 -46 14 0 26 -22
31 -60 1 -13 8 -26 13 -28 6 -2 11 -14 11 -27 0 -13 5 -27 10 -30 6 -4 8 -15
5 -26 -4 -11 -2 -19 4 -19 6 0 11 -7 11 -15 0 -8 5 -15 10 -15 6 0 10 -7 10
-15 0 -8 9 -23 19 -32 11 -9 18 -20 15 -25 -3 -4 0 -8 6 -8 5 0 22 -25 36 -55
15 -30 30 -55 35 -55 5 0 9 -6 9 -14 0 -7 7 -19 15 -26 21 -17 19 -28 -7 -33
-14 -3 -9 -5 15 -6 26 -1 37 -6 37 -16 0 -8 5 -15 11 -15 5 0 7 -5 4 -11 -4
-6 2 -13 13 -16 19 -5 42 -48 42 -78 0 -7 -15 -19 -32 -27 -18 -8 -26 -12 -18
-10 66 17 77 15 89 -18 6 -18 8 -36 6 -40 -3 -5 4 -11 15 -15 20 -6 20 -7 -2
-25 l-23 -18 27 5 c20 4 28 0 32 -15 4 -11 14 -23 22 -26 8 -3 12 -10 9 -16
-3 -5 -1 -10 4 -10 19 0 12 -23 -16 -53 l-28 -30 26 17 c23 14 28 15 38 2 7
-8 10 -20 6 -26 -3 -5 2 -10 11 -10 14 0 15 -3 6 -12 -15 -15 -16 -31 0 -22 7
5 8 3 4 -5 -5 -7 -10 -10 -13 -7 -3 3 -18 -14 -33 -37 -15 -23 -37 -50 -48
-61 -12 -10 -19 -23 -15 -29 3 -6 1 -7 -5 -3 -7 4 -28 -8 -50 -29 -39 -38
-112 -81 -112 -67 0 5 -20 -10 -45 -34 -25 -24 -50 -44 -57 -44 -6 0 -21 -8
-32 -19 -12 -10 -48 -29 -81 -42 -33 -13 -64 -26 -70 -30 -5 -4 -25 -10 -44
-14 -18 -4 -49 -18 -68 -31 -20 -13 -45 -24 -57 -24 -29 0 -230 -94 -256 -120
-9 -8 -38 -26 -67 -39 -28 -13 -63 -34 -77 -48 -14 -13 -39 -30 -55 -36 -16
-7 -55 -35 -86 -62 -32 -28 -81 -66 -110 -85 -52 -35 -145 -132 -145 -151 0
-6 -33 -46 -72 -89 -125 -134 -188 -210 -188 -224 0 -8 -16 -24 -36 -36 -41
-26 -102 -105 -132 -173 -12 -26 -28 -50 -36 -53 -10 -4 -13 -14 -10 -32 4
-20 -1 -33 -20 -51 -14 -14 -26 -29 -26 -34 0 -5 -9 -20 -20 -34 -11 -14 -20
-34 -20 -45 0 -25 -33 -87 -64 -120 -14 -15 -26 -31 -26 -37 0 -5 -12 -23 -26
-40 -14 -17 -24 -37 -21 -44 2 -7 -11 -44 -31 -82 -84 -168 -94 -189 -84 -193
12 -4 -42 -106 -81 -151 -18 -21 -27 -41 -24 -53 3 -12 -6 -38 -23 -65 -16
-24 -31 -63 -35 -86 -4 -23 -16 -59 -26 -81 -11 -21 -19 -46 -18 -55 2 -18 -3
-32 -52 -136 -18 -38 -33 -79 -34 -90 -2 -24 -28 -98 -48 -140 -34 -67 -88
-221 -91 -259 -3 -23 -13 -68 -24 -101 -11 -33 -26 -85 -32 -115 -7 -30 -22
-73 -32 -94 -11 -22 -22 -57 -25 -80 -2 -22 -9 -48 -14 -57 -5 -10 -9 -30 -9
-45 0 -15 -9 -52 -19 -83 -11 -31 -29 -87 -40 -126 -12 -38 -29 -88 -37 -110
-9 -22 -20 -49 -24 -60 -4 -11 -19 -47 -34 -80 -15 -33 -29 -80 -31 -105 -11
-112 -24 -161 -63 -243 -39 -84 -45 -102 -56 -187 -9 -64 -24 -135 -35 -163
-13 -34 -15 -737 -2 -737 4 0 11 -15 14 -34 5 -32 22 -75 70 -176 29 -61 95
-124 166 -159 33 -16 72 -38 87 -50 18 -14 41 -21 73 -21 25 0 66 -9 90 -20
24 -11 58 -20 76 -20 18 0 73 -12 121 -26 129 -38 197 -52 304 -65 139 -16
474 -12 598 7 88 13 134 14 327 5 124 -6 303 -11 399 -11 114 0 204 -5 262
-16 75 -13 139 -15 399 -9 340 7 741 29 822 44 28 6 87 19 130 30 138 35 316
60 484 66 104 4 210 15 289 30 211 39 341 49 512 39 237 -14 330 -10 439 20
51 14 109 26 128 26 18 0 86 12 150 26 64 14 139 30 166 36 65 14 192 56 230
76 17 9 64 37 105 63 41 25 95 58 120 72 52 29 125 99 147 141 20 39 6 166
-18 166 -5 0 -9 9 -9 20 0 10 -16 35 -37 55 -20 19 -33 35 -30 35 4 0 -2 9
-13 20 -11 11 -24 20 -29 20 -5 0 -12 7 -15 16 -4 10 -14 14 -26 11 -11 -3
-18 -1 -15 3 8 13 -29 30 -64 30 -17 0 -31 4 -31 9 0 5 -13 11 -29 14 -29 6
-115 80 -105 90 3 3 -4 8 -15 12 -12 3 -21 10 -21 14 0 3 -14 15 -30 25 -17 9
-28 20 -26 24 2 4 -4 25 -14 47 -10 22 -16 43 -13 48 2 4 -1 14 -7 22 -9 11
-9 19 -2 28 6 7 7 18 3 26 -4 7 -5 31 0 54 4 23 5 46 2 50 -8 13 -9 117 -2
117 4 0 5 19 2 41 -5 33 -2 44 11 51 13 8 15 13 5 24 -6 8 -8 25 -5 39 4 14 1
35 -5 46 -8 16 -8 23 1 29 8 5 10 24 5 64 -4 31 -3 56 1 56 10 0 10 62 0 78
-3 6 -2 13 4 17 6 4 7 11 4 17 -4 6 -7 26 -6 44 1 18 -3 36 -8 39 -6 4 -5 12
3 20 14 14 15 38 3 66 -8 18 -5 41 6 49 4 3 1 19 -8 35 -9 19 -11 31 -4 35 6
4 8 34 5 78 -4 48 -2 72 5 72 11 0 8 100 -4 118 -3 5 2 21 10 36 7 16 14 37
14 48 0 14 5 18 15 14 13 -5 13 -3 0 18 -16 24 -9 37 22 47 10 3 10 10 -2 31
-7 16 -11 28 -7 28 4 0 7 26 6 57 -1 32 3 63 8 70 5 7 7 27 3 44 -6 26 -4 31
8 26 12 -5 13 1 5 36 -5 23 -14 47 -20 54 -8 10 -5 13 11 13 18 0 20 4 15 27
-6 22 -4 25 10 20 14 -6 16 -3 11 16 -4 12 -9 30 -11 40 -3 10 1 20 11 23 14
6 13 10 -6 30 -20 21 -21 24 -5 24 13 0 16 5 12 16 -4 12 -2 15 9 10 26 -10
16 1 -20 24 -36 22 -42 46 -11 44 9 -1 16 3 16 8 0 6 7 7 16 4 10 -4 13 -2 8
6 -5 8 -2 9 10 5 14 -6 15 -3 5 14 -6 11 -8 27 -5 35 3 7 -4 20 -16 28 -20 14
-34 66 -18 66 4 0 6 20 5 45 -2 25 1 45 6 45 5 0 9 7 9 15 0 9 6 12 18 8 15
-6 14 -3 -3 17 l-20 23 21 -5 c14 -4 26 1 35 13 9 14 16 15 26 7 10 -8 13 -6
13 11 0 11 4 21 9 21 14 0 20 54 8 68 -8 10 -7 16 2 22 9 5 12 21 9 44 -2 20
0 36 5 36 5 0 7 9 4 20 -3 11 -1 20 3 20 5 0 8 12 6 28 -1 15 5 32 13 38 13
10 13 14 2 28 -9 10 -9 16 -3 16 12 0 6 26 -12 49 -15 19 -15 61 0 61 7 0 9
10 6 27 -4 21 -2 25 11 20 13 -5 14 -1 7 23 -4 16 -5 31 -2 35 3 3 7 22 7 43
1 20 10 57 20 81 20 48 24 89 10 111 -6 10 -4 12 10 7 16 -7 16 -6 2 16 -14
21 -14 24 4 35 13 8 18 20 15 36 -3 16 1 27 12 31 9 3 12 9 7 13 -12 9 -13 35
-1 43 4 4 1 17 -8 31 -12 19 -14 31 -6 59 6 18 11 49 12 67 1 17 5 32 11 32 5
0 6 11 3 25 -4 16 -2 25 5 25 6 0 8 7 5 16 -3 8 -2 13 2 10 5 -3 9 35 9 84 1
50 -2 92 -6 95 -5 2 -7 19 -5 36 2 17 -1 39 -6 50 -7 12 -7 19 -1 19 10 0 6
47 -10 115 -5 22 -11 67 -13 100 -2 33 -10 74 -17 90 -7 17 -13 46 -14 65 -1
19 -5 46 -9 59 -6 16 -5 21 3 17 17 -11 13 5 -6 26 -9 11 -11 18 -5 18 16 0
16 82 0 98 -7 7 -8 12 -4 12 5 0 3 7 -4 15 -10 12 -10 15 0 15 10 0 9 5 -2 18
-9 9 -13 23 -11 30 3 7 -3 22 -13 33 -21 23 -11 37 13 18 12 -10 11 -5 -5 18
-12 17 -22 35 -22 39 0 4 -7 16 -17 26 -10 12 -12 18 -4 18 7 0 9 5 6 10 -4 6
-8 24 -10 40 -2 16 -11 42 -19 59 -18 35 -20 45 -6 36 21 -13 9 16 -20 48 -16
19 -30 42 -30 50 0 9 -5 19 -10 22 -6 4 -10 12 -9 18 2 12 -3 28 -26 82 -33
78 -70 152 -86 176 -10 14 -16 29 -12 32 3 4 -6 16 -21 28 -14 11 -25 26 -24
32 4 20 -12 67 -22 67 -6 0 -10 7 -10 15 0 8 -7 15 -16 15 -8 0 -12 5 -9 10 3
6 2 10 -2 10 -12 0 -14 37 -3 66 7 18 5 26 -7 32 -13 8 -13 11 6 24 l22 16
-25 6 c-19 5 -24 12 -22 36 1 20 -2 30 -12 30 -10 0 -13 8 -9 27 4 20 -2 36
-19 56 -19 23 -22 32 -13 43 7 8 7 14 1 14 -14 0 -23 43 -11 51 6 4 3 9 -7 13
-16 6 -16 8 -4 16 11 7 11 10 2 10 -8 0 -11 9 -7 28 18 86 11 122 -22 122 -13
0 -14 3 -5 12 15 15 16 48 2 48 -6 0 -5 8 2 20 11 17 10 25 -4 49 -15 28 -15
30 3 50 23 24 24 31 4 31 -12 0 -13 5 -4 27 5 14 6 29 2 32 -11 7 -10 22 0 39
5 7 3 12 -4 12 -7 0 -5 8 6 20 12 13 14 20 5 20 -10 0 -10 3 0 15 9 11 9 15 1
15 -8 0 -9 6 -3 18 4 9 7 44 6 77 -1 33 3 66 8 73 7 8 6 12 -3 12 -11 0 -11 2
1 10 13 9 13 11 0 19 -12 8 -12 13 4 30 16 18 17 21 3 21 -12 0 -14 7 -10 28
3 15 6 32 7 37 1 6 5 16 9 23 5 7 3 12 -3 12 -7 0 -4 14 9 36 12 19 17 32 11
29 -6 -4 -8 10 -6 35 2 22 0 40 -5 40 -5 0 3 16 16 36 29 42 31 54 10 54 -12
0 -11 4 5 20 10 10 17 28 15 40 -2 11 0 20 6 20 5 0 9 7 9 15 0 8 -8 15 -17
15 -10 0 -14 4 -8 8 13 9 18 52 6 52 -13 0 0 44 16 53 19 11 16 28 -4 20 -12
-5 -15 -2 -10 10 4 12 2 14 -11 10 -15 -6 -15 -5 -3 10 7 9 10 17 5 17 -4 0 1
7 12 15 19 14 18 14 -3 15 -25 0 -29 10 -13 26 7 7 7 19 1 35 -10 29 -3 79 11
79 6 0 8 7 4 15 -3 8 -1 15 4 15 6 0 10 11 10 25 0 16 6 25 15 25 12 0 13 4 6
18 -11 21 -6 75 8 80 13 4 15 32 2 32 -6 0 -9 9 -8 20 1 11 5 20 10 20 5 0 5
9 2 20 -4 12 -2 20 5 20 14 0 8 73 -9 93 -9 12 -9 16 1 19 10 4 10 8 -1 21
-11 14 -11 17 0 17 8 0 6 5 -6 13 -10 8 -15 19 -11 25 4 7 2 12 -4 12 -7 0
-10 7 -6 15 4 11 -2 15 -22 15 -23 1 -25 3 -12 13 23 19 22 33 -5 59 -14 13
-25 28 -25 34 0 6 -9 19 -20 29 -15 14 -17 20 -8 26 9 6 8 10 -5 15 -9 3 -15
10 -12 14 2 4 -18 32 -45 61 -27 30 -52 61 -55 69 -3 8 -33 28 -67 43 -52 23
-74 28 -135 26 -40 -1 -73 -6 -73 -12 0 -5 -7 -4 -15 3 -12 10 -15 10 -15 0 0
-10 -3 -10 -15 0 -8 7 -16 9 -16 4z m-4239 -5018 c0 -3 -4 -8 -10 -11 -5 -3
-10 -1 -10 4 0 6 5 11 10 11 6 0 10 -2 10 -4z"/>
<path d="M5768 8493 c7 -3 16 -2 19 1 4 3 -2 6 -13 5 -11 0 -14 -3 -6 -6z"/>
<path d="M5813 8271 c-77 -45 -194 -131 -179 -131 3 0 32 20 63 44 32 25 94
65 138 90 44 25 76 46 70 46 -5 0 -47 -22 -92 -49z"/>
<path d="M5949 8143 c-13 -16 -12 -17 4 -4 9 7 17 15 17 17 0 8 -8 3 -21 -13z"/>
<path d="M6049 8033 l-24 -28 28 24 c15 14 27 26 27 28 0 8 -8 1 -31 -24z"/>
<path d="M5994 7963 c-37 -46 -50 -68 -38 -60 11 6 77 97 71 97 -2 0 -17 -17
-33 -37z"/>
<path d="M5859 7973 c-13 -16 -12 -17 4 -4 9 7 17 15 17 17 0 8 -8 3 -21 -13z"/>
<path d="M5769 7893 c-13 -16 -12 -17 4 -4 9 7 17 15 17 17 0 8 -8 3 -21 -13z"/>
</g>
</svg>
